<mxfile host="app.diagrams.net" modified="2024-06-13T08:22:41.468Z" agent="Mozilla/5.0 (Windows NT 10.0; Win64; x64) AppleWebKit/537.36 (KHTML, like Gecko) Chrome/125.0.0.0 Safari/537.36" etag="NsNLeG_ZRvGWSdAx8lOZ" version="24.5.4" type="device">
  <diagram name="Page-1" id="OYXEnSBc5Q9IOmaxFQdx">
    <mxGraphModel dx="1750" dy="948" grid="1" gridSize="10" guides="1" tooltips="1" connect="1" arrows="1" fold="1" page="1" pageScale="1" pageWidth="850" pageHeight="1100" math="0" shadow="0">
      <root>
        <mxCell id="0" />
        <mxCell id="1" parent="0" />
        <mxCell id="r9oCOXcNdoUpMAcFmKyy-1" value="Input layer" style="rounded=0;whiteSpace=wrap;html=1;fillColor=#d5e8d4;strokeColor=#82b366;" vertex="1" parent="1">
          <mxGeometry x="200" y="170" width="100" height="150" as="geometry" />
        </mxCell>
        <mxCell id="r9oCOXcNdoUpMAcFmKyy-2" value="Hidden layer(s)" style="rounded=0;whiteSpace=wrap;html=1;" vertex="1" parent="1">
          <mxGeometry x="375" y="170" width="100" height="150" as="geometry" />
        </mxCell>
        <mxCell id="r9oCOXcNdoUpMAcFmKyy-3" value="Output Layer" style="rounded=0;whiteSpace=wrap;html=1;fillColor=#f8cecc;strokeColor=#b85450;" vertex="1" parent="1">
          <mxGeometry x="560" y="170" width="100" height="150" as="geometry" />
        </mxCell>
        <mxCell id="r9oCOXcNdoUpMAcFmKyy-4" value="" style="shape=flexArrow;endArrow=classic;html=1;rounded=0;exitX=1;exitY=0.5;exitDx=0;exitDy=0;entryX=0;entryY=0.5;entryDx=0;entryDy=0;" edge="1" parent="1" source="r9oCOXcNdoUpMAcFmKyy-1" target="r9oCOXcNdoUpMAcFmKyy-2">
          <mxGeometry width="50" height="50" relative="1" as="geometry">
            <mxPoint x="470" y="310" as="sourcePoint" />
            <mxPoint x="520" y="260" as="targetPoint" />
          </mxGeometry>
        </mxCell>
        <mxCell id="r9oCOXcNdoUpMAcFmKyy-5" value="" style="shape=flexArrow;endArrow=classic;html=1;rounded=0;exitX=1;exitY=0.5;exitDx=0;exitDy=0;entryX=0;entryY=0.5;entryDx=0;entryDy=0;" edge="1" parent="1" source="r9oCOXcNdoUpMAcFmKyy-2" target="r9oCOXcNdoUpMAcFmKyy-3">
          <mxGeometry width="50" height="50" relative="1" as="geometry">
            <mxPoint x="490" y="260" as="sourcePoint" />
            <mxPoint x="565" y="260" as="targetPoint" />
          </mxGeometry>
        </mxCell>
        <mxCell id="r9oCOXcNdoUpMAcFmKyy-6" value="" style="shape=flexArrow;endArrow=classic;html=1;rounded=0;exitX=1;exitY=0.5;exitDx=0;exitDy=0;entryX=0;entryY=0.5;entryDx=0;entryDy=0;" edge="1" parent="1" source="r9oCOXcNdoUpMAcFmKyy-3" target="r9oCOXcNdoUpMAcFmKyy-7">
          <mxGeometry width="50" height="50" relative="1" as="geometry">
            <mxPoint x="680" y="244.58" as="sourcePoint" />
            <mxPoint x="765" y="244.58" as="targetPoint" />
          </mxGeometry>
        </mxCell>
        <mxCell id="r9oCOXcNdoUpMAcFmKyy-7" value="&lt;font style=&quot;font-size: 14px;&quot;&gt;Scores&lt;/font&gt;" style="rounded=0;whiteSpace=wrap;html=1;" vertex="1" parent="1">
          <mxGeometry x="770" y="210" width="100" height="70" as="geometry" />
        </mxCell>
        <mxCell id="r9oCOXcNdoUpMAcFmKyy-8" value="&lt;span style=&quot;font-size: 14px;&quot;&gt;Labels&lt;/span&gt;" style="rounded=0;whiteSpace=wrap;html=1;" vertex="1" parent="1">
          <mxGeometry x="920" y="210" width="100" height="70" as="geometry" />
        </mxCell>
        <mxCell id="r9oCOXcNdoUpMAcFmKyy-9" value="" style="endArrow=classic;html=1;rounded=0;exitX=0.5;exitY=1;exitDx=0;exitDy=0;endSize=15;" edge="1" parent="1" source="r9oCOXcNdoUpMAcFmKyy-7" target="r9oCOXcNdoUpMAcFmKyy-10">
          <mxGeometry width="50" height="50" relative="1" as="geometry">
            <mxPoint x="850" y="430" as="sourcePoint" />
            <mxPoint x="930" y="460" as="targetPoint" />
          </mxGeometry>
        </mxCell>
        <mxCell id="r9oCOXcNdoUpMAcFmKyy-10" value="&lt;font style=&quot;font-size: 14px;&quot;&gt;Cost function (BCE)&lt;/font&gt;" style="ellipse;whiteSpace=wrap;html=1;" vertex="1" parent="1">
          <mxGeometry x="782" y="481" width="230" height="50" as="geometry" />
        </mxCell>
        <mxCell id="r9oCOXcNdoUpMAcFmKyy-11" value="" style="endArrow=classic;html=1;rounded=0;exitX=0.5;exitY=1;exitDx=0;exitDy=0;endSize=15;" edge="1" parent="1" source="r9oCOXcNdoUpMAcFmKyy-8" target="r9oCOXcNdoUpMAcFmKyy-10">
          <mxGeometry width="50" height="50" relative="1" as="geometry">
            <mxPoint x="880" y="300" as="sourcePoint" />
            <mxPoint x="999" y="463" as="targetPoint" />
          </mxGeometry>
        </mxCell>
        <mxCell id="r9oCOXcNdoUpMAcFmKyy-12" value="&lt;font style=&quot;font-size: 12px;&quot;&gt;Cost values&lt;/font&gt;" style="rounded=0;whiteSpace=wrap;html=1;" vertex="1" parent="1">
          <mxGeometry x="600" y="491" width="145" height="30" as="geometry" />
        </mxCell>
        <mxCell id="r9oCOXcNdoUpMAcFmKyy-13" value="&lt;span style=&quot;font-size: 10px;&quot;&gt;Gradient Descend&lt;/span&gt;" style="rhombus;whiteSpace=wrap;html=1;" vertex="1" parent="1">
          <mxGeometry x="410" y="471" width="150" height="70" as="geometry" />
        </mxCell>
        <mxCell id="r9oCOXcNdoUpMAcFmKyy-14" value="" style="endArrow=classic;html=1;rounded=0;exitX=0;exitY=0.5;exitDx=0;exitDy=0;entryX=1;entryY=0.5;entryDx=0;entryDy=0;" edge="1" parent="1" source="r9oCOXcNdoUpMAcFmKyy-10" target="r9oCOXcNdoUpMAcFmKyy-12">
          <mxGeometry width="50" height="50" relative="1" as="geometry">
            <mxPoint x="620" y="471" as="sourcePoint" />
            <mxPoint x="670" y="421" as="targetPoint" />
          </mxGeometry>
        </mxCell>
        <mxCell id="r9oCOXcNdoUpMAcFmKyy-15" value="" style="endArrow=classic;html=1;rounded=0;exitX=0;exitY=0.5;exitDx=0;exitDy=0;entryX=1;entryY=0.5;entryDx=0;entryDy=0;" edge="1" parent="1" source="r9oCOXcNdoUpMAcFmKyy-12" target="r9oCOXcNdoUpMAcFmKyy-13">
          <mxGeometry width="50" height="50" relative="1" as="geometry">
            <mxPoint x="810" y="430" as="sourcePoint" />
            <mxPoint x="860" y="380" as="targetPoint" />
          </mxGeometry>
        </mxCell>
        <mxCell id="r9oCOXcNdoUpMAcFmKyy-16" value="" style="endArrow=classic;html=1;rounded=0;exitX=0.5;exitY=0;exitDx=0;exitDy=0;" edge="1" parent="1" source="r9oCOXcNdoUpMAcFmKyy-13">
          <mxGeometry width="50" height="50" relative="1" as="geometry">
            <mxPoint x="330" y="420" as="sourcePoint" />
            <mxPoint x="600" y="340" as="targetPoint" />
          </mxGeometry>
        </mxCell>
        <mxCell id="r9oCOXcNdoUpMAcFmKyy-17" value="Update&amp;nbsp;&lt;div&gt;parameter&lt;/div&gt;" style="edgeLabel;html=1;align=center;verticalAlign=middle;resizable=0;points=[];" vertex="1" connectable="0" parent="r9oCOXcNdoUpMAcFmKyy-16">
          <mxGeometry x="-0.3314" y="1" relative="1" as="geometry">
            <mxPoint as="offset" />
          </mxGeometry>
        </mxCell>
        <mxCell id="r9oCOXcNdoUpMAcFmKyy-18" value="" style="endArrow=classic;html=1;rounded=0;exitX=0.5;exitY=0;exitDx=0;exitDy=0;" edge="1" parent="1" source="r9oCOXcNdoUpMAcFmKyy-13">
          <mxGeometry width="50" height="50" relative="1" as="geometry">
            <mxPoint x="495" y="481" as="sourcePoint" />
            <mxPoint x="410" y="360" as="targetPoint" />
          </mxGeometry>
        </mxCell>
        <mxCell id="r9oCOXcNdoUpMAcFmKyy-19" value="Update&amp;nbsp;&lt;div&gt;parameter&lt;/div&gt;" style="edgeLabel;html=1;align=center;verticalAlign=middle;resizable=0;points=[];" vertex="1" connectable="0" parent="r9oCOXcNdoUpMAcFmKyy-18">
          <mxGeometry x="-0.3314" y="1" relative="1" as="geometry">
            <mxPoint as="offset" />
          </mxGeometry>
        </mxCell>
        <mxCell id="r9oCOXcNdoUpMAcFmKyy-20" value="" style="curved=1;endArrow=none;html=1;rounded=0;endFill=0;" edge="1" parent="1">
          <mxGeometry width="50" height="50" relative="1" as="geometry">
            <mxPoint x="605" y="346" as="sourcePoint" />
            <mxPoint x="810" y="300" as="targetPoint" />
            <Array as="points">
              <mxPoint x="596" y="396" />
              <mxPoint x="720" y="420" />
              <mxPoint x="810" y="380" />
            </Array>
          </mxGeometry>
        </mxCell>
        <mxCell id="r9oCOXcNdoUpMAcFmKyy-21" value="" style="curved=1;endArrow=none;html=1;rounded=0;endFill=0;" edge="1" parent="1">
          <mxGeometry width="50" height="50" relative="1" as="geometry">
            <mxPoint x="425" y="361" as="sourcePoint" />
            <mxPoint x="590" y="340" as="targetPoint" />
            <Array as="points">
              <mxPoint x="510" y="440" />
            </Array>
          </mxGeometry>
        </mxCell>
        <mxCell id="r9oCOXcNdoUpMAcFmKyy-22" value="" style="shape=flexArrow;endArrow=classic;html=1;rounded=0;fillColor=#FFF2CC;strokeColor=#FFF2CC;endSize=7;strokeWidth=30;" edge="1" parent="1">
          <mxGeometry width="50" height="50" relative="1" as="geometry">
            <mxPoint x="1010" y="631" as="sourcePoint" />
            <mxPoint x="256" y="631" as="targetPoint" />
          </mxGeometry>
        </mxCell>
        <mxCell id="r9oCOXcNdoUpMAcFmKyy-23" value="&lt;font size=&quot;1&quot; style=&quot;&quot;&gt;&lt;b style=&quot;font-size: 20px;&quot;&gt;BACKWARD PROPAGATION&lt;/b&gt;&lt;/font&gt;" style="edgeLabel;html=1;align=center;verticalAlign=middle;resizable=0;points=[];labelBackgroundColor=none;" vertex="1" connectable="0" parent="r9oCOXcNdoUpMAcFmKyy-22">
          <mxGeometry x="0.0027" y="-8" relative="1" as="geometry">
            <mxPoint x="-1" as="offset" />
          </mxGeometry>
        </mxCell>
        <mxCell id="r9oCOXcNdoUpMAcFmKyy-24" value="" style="rounded=0;whiteSpace=wrap;html=1;fillColor=none;strokeWidth=0;" vertex="1" parent="1">
          <mxGeometry x="140" width="930" height="740" as="geometry" />
        </mxCell>
        <mxCell id="r9oCOXcNdoUpMAcFmKyy-25" value="" style="shape=flexArrow;endArrow=classic;html=1;rounded=0;fillColor=#DAE8FC;strokeColor=#DAE8FC;endSize=7;strokeWidth=30;" edge="1" parent="1">
          <mxGeometry width="50" height="50" relative="1" as="geometry">
            <mxPoint x="200" y="90" as="sourcePoint" />
            <mxPoint x="940" y="90" as="targetPoint" />
          </mxGeometry>
        </mxCell>
        <mxCell id="r9oCOXcNdoUpMAcFmKyy-26" value="&lt;font size=&quot;1&quot; style=&quot;&quot;&gt;&lt;b style=&quot;font-size: 20px;&quot;&gt;FORWARD PROPAGATION&lt;/b&gt;&lt;/font&gt;" style="edgeLabel;html=1;align=center;verticalAlign=middle;resizable=0;points=[];labelBackgroundColor=none;" vertex="1" connectable="0" parent="r9oCOXcNdoUpMAcFmKyy-25">
          <mxGeometry x="0.0027" y="-8" relative="1" as="geometry">
            <mxPoint x="-1" as="offset" />
          </mxGeometry>
        </mxCell>
      </root>
    </mxGraphModel>
  </diagram>
</mxfile>
